<?xml version="1.0" encoding="iso-8859-1"?>
<!-- Generator: Adobe Illustrator 19.0.0, SVG Export Plug-In . SVG Version: 6.00 Build 0)  -->
<svg version="1.1" id="Layer_1" xmlns="http://www.w3.org/2000/svg" xmlns:xlink="http://www.w3.org/1999/xlink" x="0px" y="0px"
	 viewBox="0 0 512.001 512.001" style="enable-background:new 0 0 512.001 512.001;" xml:space="preserve">
<path style="fill:#6C489C;" d="M408.25,382.553l-68.326-68.326c63.506-74.829,59.954-187.12-10.673-257.747
	c-67.363-67.364-173.91-75.414-247.146-19.057C62.019,52.88,59.908,56.48,59.908,56.48c-74.376,74.376-74.376,194.966,0,269.342
	c68.436,68.436,175.995,73.897,250.681,16.393l68.999,68.999L408.25,382.553z"/>
<path style="fill:#52D6C6;" d="M505.057,470.419l-38.135,38.135c-3.681,3.681-9.647,3.681-13.328,0l-87.651-87.651
	c-3.681-3.681-3.681-9.647,0-13.328l38.135-38.135c3.681-3.681,9.647-3.681,13.328,0l87.651,87.651
	C508.736,460.771,508.736,466.739,505.057,470.419z"/>
<path style="opacity:0.1;enable-background:new    ;" d="M491.663,444.326l-24.841,24.841c-3.626,3.626-9.505,3.626-13.131,0
	l-74.357-74.357l-13.492,13.492c-3.626,3.626-3.626,9.506,0,13.131l87.848,87.848c3.626,3.626,9.505,3.626,13.131,0l38.332-38.332
	c3.626-3.626,3.626-9.506,0-13.131L491.663,444.326z"/>
<circle style="fill:#FFFFFF;" cx="194.583" cy="191.151" r="153.723"/>
<path style="opacity:0.1;enable-background:new    ;" d="M329.696,56.089c-8.504-8.504-17.633-16.058-27.24-22.662
	c50.881,74.17,43.383,176.345-22.518,242.246c-65.876,65.876-167.999,73.393-242.161,22.577c6.557,9.57,14.075,18.681,22.576,27.182
	c68.291,68.291,175.538,73.87,250.205,16.752l23.687,23.687l28.662-28.662l-22.917-22.917
	C403.892,239.462,400.464,126.858,329.696,56.089z"/>
<path style="fill:#EAA02B;" d="M235.89,155.833c-4.273,0-7.737-3.464-7.737-7.737v-26.248c0-11.275-9.173-20.448-20.448-20.448
	h-26.248c-11.276,0-20.449,9.173-20.449,20.448v26.248c0,4.273-3.464,7.737-7.737,7.737s-7.737-3.464-7.737-7.737v-26.248
	c0-19.808,16.116-35.924,35.925-35.924h26.248c19.808,0,35.924,16.116,35.924,35.924v26.248
	C243.629,152.368,240.164,155.833,235.89,155.833z"/>
<path style="fill:#FDC00F;" d="M249.001,277.695H140.16c-5.783,0-10.472-4.688-10.472-10.472v-108.84
	c0-5.783,4.688-10.472,10.472-10.472h108.84c5.783,0,10.472,4.688,10.472,10.472v108.84
	C259.472,273.007,254.784,277.695,249.001,277.695z"/>
<g>
	<path style="fill:#EAA02B;" d="M249.154,147.911h-6.793v99.187c0,5.699-4.619,10.318-10.318,10.318H129.689v9.962
		c0,5.699,4.619,10.318,10.318,10.318h109.149c5.698,0,10.318-4.619,10.318-10.318V158.229
		C259.472,152.53,254.853,147.911,249.154,147.911z"/>
	<path style="fill:#EAA02B;" d="M211.69,201.324c0-9.45-7.66-17.111-17.111-17.111c-9.45,0-17.111,7.66-17.111,17.111
		c0,5.704,2.794,10.752,7.085,13.861v26.206h20.051v-26.206C208.897,212.077,211.69,207.028,211.69,201.324z"/>
</g>
<g>
</g>
<g>
</g>
<g>
</g>
<g>
</g>
<g>
</g>
<g>
</g>
<g>
</g>
<g>
</g>
<g>
</g>
<g>
</g>
<g>
</g>
<g>
</g>
<g>
</g>
<g>
</g>
<g>
</g>
</svg>
